<?xml version="1.0" standalone="no"?>
<!DOCTYPE svg PUBLIC "-//W3C//DTD SVG 20010904//EN"
 "http://www.w3.org/TR/2001/REC-SVG-20010904/DTD/svg10.dtd">
<svg version="1.0" xmlns="http://www.w3.org/2000/svg"
 width="517.000000pt" height="517.000000pt" viewBox="0 0 517.000000 517.000000"
 preserveAspectRatio="xMidYMid meet">
<metadata>
Created by potrace 1.14, written by Peter Selinger 2001-2017
</metadata>
<g transform="translate(0.000000,517.000000) scale(0.100000,-0.100000)"
fill="#000000" stroke="none">
<path d="M2450 5161 c0 -5 -30 -23 -67 -41 l-68 -31 -50 26 c-48 25 -53 26
-110 15 -33 -6 -82 -12 -108 -13 -40 -2 -52 -7 -69 -29 -24 -34 -62 -37 -117
-9 -20 11 -65 23 -99 27 -60 6 -62 6 -88 -24 -23 -26 -32 -29 -65 -25 -21 3
-49 3 -63 -1 -28 -7 -96 -67 -96 -85 0 -6 -16 -11 -36 -11 -42 0 -88 -30 -109
-70 -8 -16 -33 -39 -55 -51 -22 -13 -40 -28 -40 -35 0 -6 -14 -17 -31 -24 -17
-7 -37 -23 -45 -36 -8 -12 -33 -34 -55 -49 -26 -17 -47 -41 -59 -70 -12 -29
-33 -53 -60 -71 -25 -17 -47 -43 -59 -69 -10 -23 -24 -46 -30 -49 -22 -14
-120 -193 -132 -241 -17 -70 -51 -144 -87 -188 -17 -21 -34 -48 -38 -60 -3
-12 -17 -36 -29 -53 -75 -100 -214 -354 -265 -484 -40 -102 -88 -245 -104
-312 -69 -289 -71 -309 -71 -623 0 -316 4 -349 71 -633 46 -194 154 -452 264
-632 26 -41 53 -86 61 -100 8 -14 16 -27 19 -30 3 -3 27 -35 53 -72 26 -36 53
-72 60 -80 6 -7 32 -38 57 -68 117 -142 332 -334 503 -448 308 -206 676 -348
1026 -396 150 -21 574 -22 721 -1 791 112 1496 622 1859 1342 137 271 222 565
252 870 14 147 6 505 -15 623 -59 337 -165 633 -316 880 -26 41 -53 86 -61 99
-8 14 -19 32 -26 40 -7 9 -33 45 -60 81 -26 36 -50 67 -53 70 -3 3 -25 30 -50
60 -58 71 -209 222 -280 280 -30 25 -57 47 -60 50 -27 28 -194 142 -300 206
-87 52 -220 116 -365 175 -11 4 -49 18 -83 30 -35 12 -66 29 -69 38 -9 24 -34
51 -49 51 -7 0 -20 -7 -29 -16 -20 -20 -86 -12 -302 37 -23 5 -53 9 -66 9 -13
0 -36 13 -52 30 -16 17 -57 46 -91 65 -34 18 -91 56 -125 84 -61 49 -65 51
-126 51 -35 0 -63 -4 -63 -9z"/>
</g>
</svg>
