<?xml version="1.0" standalone="no"?>
<!DOCTYPE svg PUBLIC "-//W3C//DTD SVG 20010904//EN"
 "http://www.w3.org/TR/2001/REC-SVG-20010904/DTD/svg10.dtd">
<svg version="1.0" xmlns="http://www.w3.org/2000/svg"
 width="128.000000pt" height="128.000000pt" viewBox="0 0 128.000000 128.000000"
 preserveAspectRatio="xMidYMid meet">
<metadata>
Created by potrace 1.14, written by Peter Selinger 2001-2017
</metadata>
<g transform="translate(0.000000,128.000000) scale(0.100000,-0.100000)"
fill="#000000" stroke="none">
<path d="M142 925 c-4 -5 -7 -137 -7 -292 0 -274 0 -282 20 -285 17 -3 343 -2
386 1 13 1 15 13 13 64 -1 34 -2 65 -3 68 -1 4 -52 6 -113 5 -141 -2 -144 -1
-142 32 1 15 3 35 3 45 1 15 13 17 106 17 l105 0 0 65 0 65 -105 0 c-58 0
-105 3 -106 8 -5 48 -3 65 9 70 8 3 64 5 126 6 l111 1 3 68 c2 37 -1 67 -5 68
-53 7 -396 2 -401 -6z"/>
<path d="M817 929 c-50 -12 -89 -33 -133 -71 -117 -103 -124 -316 -13 -429 81
-83 215 -110 307 -62 l42 23 0 -23 c0 -20 4 -22 64 -22 77 0 71 -14 71 175 l0
135 -123 3 -122 3 0 -60 0 -59 45 1 c24 0 47 -2 50 -5 12 -12 -94 -56 -125
-52 -91 11 -128 71 -121 197 0 17 16 43 39 68 31 33 44 40 77 41 49 1 82 -12
115 -45 l25 -25 57 41 c32 23 57 46 58 51 0 5 -19 28 -43 51 -66 63 -170 88
-270 64z"/>
</g>
</svg>
